<svg xmlns="http://www.w3.org/2000/svg" width="16.8" height="14.4" viewBox="0 0 16.8 14.4">
  <g id="menu-alt-2_1" data-name="menu-alt-2 1" transform="translate(-3.6 -4.8)">
    <g id="Group">
      <path id="Vector" d="M0,1.2A1.2,1.2,0,0,1,1.2,0H15.6a1.2,1.2,0,1,1,0,2.4H1.2A1.2,1.2,0,0,1,0,1.2Z" transform="translate(3.6 4.8)" fill="#fff"/>
      <path id="Vector-2" data-name="Vector" d="M0,1.2A1.2,1.2,0,0,1,1.2,0H15.6a1.2,1.2,0,0,1,0,2.4H1.2A1.2,1.2,0,0,1,0,1.2Z" transform="translate(3.6 10.8)" fill="#fff"/>
      <path id="Vector-3" data-name="Vector" d="M0,1.2A1.2,1.2,0,0,1,1.2,0H8.4a1.2,1.2,0,0,1,0,2.4H1.2A1.2,1.2,0,0,1,0,1.2Z" transform="translate(3.6 16.8)" fill="#fff"/>
    </g>
  </g>
</svg>
