<svg xmlns="http://www.w3.org/2000/svg" width="18" height="20" viewBox="0 0 18 20">
  <g id="bell_1" data-name="bell 1" transform="translate(-3 -2)">
    <g id="Group">
      <path id="Vector" d="M11,14h5l-1.405-1.4A2.032,2.032,0,0,1,14,11.158V8a6,6,0,0,0-4-5.659V2A2,2,0,0,0,6,2v.341A6,6,0,0,0,2,8v3.159A2.032,2.032,0,0,1,1.405,12.6L0,14H11Zm0,0v1a3,3,0,1,1-6,0V14Zm0,0H5" transform="translate(4 3)" fill="none" stroke="#f0f0f0" stroke-linecap="round" stroke-linejoin="round" stroke-width="2"/>
    </g>
  </g>
</svg>
