<svg xmlns="http://www.w3.org/2000/svg" width="16" height="20" viewBox="0 0 16 20">
  <g id="clipboard-list_1" data-name="clipboard-list 1" transform="translate(-4 -2)">
    <g id="Group">
      <path id="Vector" d="M4,2H2A2,2,0,0,0,0,4V16a2,2,0,0,0,2,2H12a2,2,0,0,0,2-2V4a2,2,0,0,0-2-2H4ZM4,2A2,2,0,0,0,6,4H8a2,2,0,0,0,2-2ZM4,2A2,2,0,0,1,6,0H8a2,2,0,0,1,2,2ZM7,9H7Zm0,4H7ZM4,9H4Zm0,4h.01" transform="translate(5 3)" fill="none" stroke="#008a00" stroke-linecap="round" stroke-linejoin="round" stroke-width="2"/>
    </g>
  </g>
</svg>
