<svg xmlns="http://www.w3.org/2000/svg" width="30.513" height="21.626" viewBox="0 0 30.513 21.626">
  <g id="credit-card_1" data-name="credit-card 1" transform="translate(-2 -4)">
    <g id="Group" transform="translate(3 5)">
      <path id="Vector" d="M0,7.009H0Zm6.336,7.009h0Zm7.92,0h0Zm-9.5,5.607H23.761a5.083,5.083,0,0,0,3.36-1.232,3.976,3.976,0,0,0,1.392-2.974V4.206a3.976,3.976,0,0,0-1.392-2.974A5.083,5.083,0,0,0,23.761,0H4.752a5.083,5.083,0,0,0-3.36,1.232A3.976,3.976,0,0,0,0,4.206V15.42a3.976,3.976,0,0,0,1.392,2.974A5.083,5.083,0,0,0,4.752,19.626Z" transform="translate(0)" fill="none" stroke="#fff" stroke-linecap="round" stroke-linejoin="round" stroke-width="2"/>
    </g>
  </g>
</svg>
