<svg xmlns="http://www.w3.org/2000/svg" width="18" height="18" viewBox="0 0 18 18">
  <g id="view-grid_3" data-name="view-grid 3" transform="translate(-3 -3)">
    <g id="Group">
      <path id="Vector" d="M0,2A2,2,0,0,1,2,0H4A2,2,0,0,1,6,2V4A2,2,0,0,1,4,6H2A2,2,0,0,1,0,4Z" transform="translate(4 4)" fill="none" stroke="#9b9b9b" stroke-linecap="round" stroke-linejoin="round" stroke-width="2"/>
      <path id="Vector-2" data-name="Vector" d="M0,2A2,2,0,0,1,2,0H4A2,2,0,0,1,6,2V4A2,2,0,0,1,4,6H2A2,2,0,0,1,0,4Z" transform="translate(14 4)" fill="none" stroke="#9b9b9b" stroke-linecap="round" stroke-linejoin="round" stroke-width="2"/>
      <path id="Vector-3" data-name="Vector" d="M0,2A2,2,0,0,1,2,0H4A2,2,0,0,1,6,2V4A2,2,0,0,1,4,6H2A2,2,0,0,1,0,4Z" transform="translate(4 14)" fill="none" stroke="#9b9b9b" stroke-linecap="round" stroke-linejoin="round" stroke-width="2"/>
      <path id="Vector-4" data-name="Vector" d="M0,2A2,2,0,0,1,2,0H4A2,2,0,0,1,6,2V4A2,2,0,0,1,4,6H2A2,2,0,0,1,0,4Z" transform="translate(14 14)" fill="none" stroke="#9b9b9b" stroke-linecap="round" stroke-linejoin="round" stroke-width="2"/>
    </g>
  </g>
</svg>
