<svg xmlns="http://www.w3.org/2000/svg" width="20" height="19" viewBox="0 0 20 19">
  <path id="ic_card_giftcard_24px" d="M20,6H17.82A2.993,2.993,0,0,0,12.5,3.35l-.5.67-.5-.68A2.994,2.994,0,0,0,6.18,6H4A1.985,1.985,0,0,0,2.01,8L2,19a1.993,1.993,0,0,0,2,2H20a1.993,1.993,0,0,0,2-2V8A1.993,1.993,0,0,0,20,6ZM15,4a1,1,0,1,1-1,1A1,1,0,0,1,15,4ZM9,4A1,1,0,1,1,8,5,1,1,0,0,1,9,4ZM20,19H4V17H20Zm0-5H4V8H9.08L7,10.83,8.62,12,11,8.76,12,7.4l1,1.36L15.38,12,17,10.83,14.92,8H20Z" transform="translate(-2 -2)"/>
</svg>
