<?xml version="1.0" encoding="utf-8"?>
<!-- Generator: Adobe Illustrator 25.0.0, SVG Export Plug-In . SVG Version: 6.00 Build 0)  -->
<svg version="1.1" id="Layer_1" xmlns="http://www.w3.org/2000/svg" xmlns:xlink="http://www.w3.org/1999/xlink" x="0px" y="0px"
	 viewBox="0 0 20 19" style="enable-background:new 0 0 20 19;" xml:space="preserve">
<path id="ic_redeem_24px" d="M18,4h-2.2c0.6-1.6-0.3-3.3-1.8-3.8c-1.3-0.5-2.7,0-3.5,1.2L10,2L9.5,1.3C8.6,0,6.7-0.4,5.4,0.5
	C4.2,1.2,3.7,2.7,4.2,4H2C0.9,4,0,4.9,0,6c0,0,0,0,0,0l0,11c0,1.1,0.9,2,2,2c0,0,0,0,0,0h16c1.1,0,2-0.9,2-2c0,0,0,0,0,0V6
	C20,4.9,19.1,4,18,4C18,4,18,4,18,4z M13,2c0.6,0,1,0.4,1,1s-0.4,1-1,1s-1-0.4-1-1S12.4,2,13,2z M7,2c0.6,0,1,0.4,1,1S7.6,4,7,4
	S6,3.6,6,3S6.4,2,7,2z M18,17H2v-2h16V17z M18,12H2V6h5.1L5,8.8L6.6,10L9,6.8l1-1.4l1,1.4l2.4,3.2L15,8.8L12.9,6H18V12z"/>
</svg>
