<?xml version="1.0" encoding="utf-8"?>
<!-- Generator: Adobe Illustrator 25.0.0, SVG Export Plug-In . SVG Version: 6.00 Build 0)  -->
<svg version="1.1" id="Layer_1" xmlns="http://www.w3.org/2000/svg" xmlns:xlink="http://www.w3.org/1999/xlink" x="0px" y="0px"
	 viewBox="0 0 113.5 114.9" style="enable-background:new 0 0 113.5 114.9;" xml:space="preserve">
<style type="text/css">
	.st0{fill:none;}
	.st1{opacity:0.4;fill:url(#Path_14_1_);enable-background:new    ;}
	.st2{fill:#FFFFFF;stroke:#182A53;stroke-width:2;stroke-miterlimit:10;}
	.st3{fill:#212683;}
	.st4{fill:none;stroke:#182A53;stroke-width:2;stroke-miterlimit:10;}
	.st5{fill:#FFFFFF;}
	.st6{fill:#F0EFEF;stroke:#D9D8D8;stroke-miterlimit:10;}
	.st7{fill:#8D8787;}
</style>
<image style="overflow:visible;" width="375" height="1110" xlink:href="image_2022_03_18T06_59_02_770Z.png"  transform="matrix(1 0 0 1 316.4575 -170.8723)">
</image>
<rect x="-190.2" y="358.5" class="st0" width="57" height="54"/>
<g id="Group_56845" transform="translate(-2289.005 147.58)">
	<g id="Group_12" transform="translate(2301.223 -139.281)">
		
			<linearGradient id="Path_14_1_" gradientUnits="userSpaceOnUse" x1="-224.8265" y1="384.0431" x2="-223.5694" y2="384.0431" gradientTransform="matrix(32.1935 0 0 -35.9714 7043.9126 14191.79)">
			<stop  offset="0" style="stop-color:#EFA6C2"/>
			<stop  offset="1" style="stop-color:#96CDBD"/>
		</linearGradient>
		<path id="Path_14" class="st1" d="M-164.8,373.4c-1.3,0-2.6,0.2-3.8,0.7c3.3-6.6,0.6-14.7-6-18s-14.7-0.6-18,6
			c-3,5.9-1.2,13.1,4.2,17c-5.3,3.2-7,10.1-3.8,15.4c3.2,5.3,10.1,7,15.4,3.8c2-1.2,3.6-3,4.5-5.2c4.6,4.1,11.7,3.7,15.8-0.9
			c4.1-4.6,3.7-11.7-0.9-15.8C-159.4,374.4-162.1,373.4-164.8,373.4L-164.8,373.4z"/>
		<path id="Path_15" class="st2" d="M-176.2,390.9c-2.2,0.4-4.3,1.5-6,3c-0.8,0.7-2,0.7-2.8-0.1c-0.2-0.2-0.3-0.4-0.4-0.6
			c-2.3-6.3,0.9-13.3,7.3-15.7c6.3-2.3,13.3,0.9,15.7,7.3c1,2.7,1,5.7,0,8.4c-0.4,1-1.5,1.5-2.5,1.2c-0.2-0.1-0.5-0.2-0.7-0.4
			c-1.7-1.5-3.7-2.6-6-3"/>
		<g id="Group_8" transform="translate(1.504 7.667)">
			<g id="Group_6" transform="translate(0)">
				<path id="Path_16" class="st2" d="M-187.6,368.3c0.7,1.7-0.1,3.7-1.8,4.4c-1.7,0.7-3.7-0.1-4.4-1.8c-0.7-1.7,0.1-3.7,1.8-4.4
					c0,0,0,0,0,0C-190.3,365.8-188.3,366.6-187.6,368.3z"/>
				<path id="Path_17" class="st2" d="M-179.5,358.7c0.7,1.7-0.1,3.7-1.8,4.4c-1.7,0.7-3.7-0.1-4.4-1.8c-0.7-1.7,0.1-3.7,1.8-4.4
					c0,0,0,0,0,0C-182.2,356.1-180.2,357-179.5,358.7z"/>
			</g>
			<g id="Group_7" transform="translate(17.986)">
				<path id="Path_18" class="st2" d="M-181.1,368.3c-0.7,1.7,0.1,3.7,1.8,4.4c1.7,0.7,3.7-0.1,4.4-1.8c0.7-1.7-0.1-3.7-1.8-4.4
					c0,0,0,0,0,0C-178.4,365.8-180.4,366.6-181.1,368.3z"/>
				<path id="Path_19" class="st2" d="M-189.3,358.7c-0.7,1.7,0.1,3.7,1.8,4.4c1.7,0.7,3.7-0.1,4.4-1.8c0.7-1.7-0.1-3.7-1.8-4.4
					c0,0,0,0,0,0C-186.5,356.1-188.5,357-189.3,358.7z"/>
			</g>
		</g>
		<path id="Path_20" class="st3" d="M-173.2,390.7c0,0.3-0.3,0.6-0.6,0.6c-0.3,0-0.6-0.3-0.6-0.6c0-0.3,0.3-0.6,0.6-0.6
			C-173.5,390.1-173.2,390.4-173.2,390.7z"/>
		<path id="Path_21" class="st4" d="M-176.8,381.7L-176.8,381.7c-2.3,0-4.1,1.8-4.1,4.1v0"/>
		<g id="Group_9" transform="translate(0 6.562)">
			<path id="Path_22" class="st5" d="M-191.4,357.5h-0.5V357c0-0.4-0.3-0.7-0.7-0.7c-0.4,0-0.7,0.3-0.7,0.7v0.5h-0.5
				c-0.4,0-0.7,0.3-0.7,0.7c0,0.4,0.3,0.7,0.7,0.7h0.5v0.5c0,0.4,0.3,0.7,0.7,0.7c0.4,0,0.7-0.3,0.7-0.7v-0.5h0.5
				c0.4,0,0.7-0.3,0.7-0.7C-190.7,357.8-191,357.5-191.4,357.5L-191.4,357.5z"/>
		</g>
		<g id="Group_10" transform="translate(28.358 3.554)">
			<path id="Path_23" class="st5" d="M-184.1,356.7h-0.5v-0.5c0-0.4-0.3-0.7-0.7-0.7c-0.4,0-0.7,0.3-0.7,0.7v0.5h-0.5
				c-0.4,0-0.7,0.3-0.7,0.7c0,0.4,0.3,0.7,0.7,0.7h0.5v0.5c0,0.4,0.3,0.7,0.7,0.7c0.4,0,0.7-0.3,0.7-0.7v-0.5h0.5
				c0.4,0,0.7-0.3,0.7-0.7C-183.4,357.1-183.7,356.7-184.1,356.7z"/>
		</g>
		<g id="Group_11" transform="translate(1.504 31.13)">
			<path id="Path_24" class="st5" d="M-191,363.8h-0.5v-0.5c0-0.4-0.3-0.7-0.7-0.7c-0.4,0-0.7,0.3-0.7,0.7v0.5h-0.5
				c-0.4,0-0.7,0.3-0.7,0.7c0,0.4,0.3,0.7,0.7,0.7h0.5v0.5c0,0.4,0.3,0.7,0.7,0.7c0.4,0,0.7-0.3,0.7-0.7v-0.5h0.5
				c0.4,0,0.7-0.3,0.7-0.7C-190.3,364.1-190.6,363.8-191,363.8z"/>
		</g>
	</g>
</g>
<image style="overflow:visible;" width="375" height="812" xlink:href="../Desktop/4 – 6.png"  transform="matrix(8.632120e-02 0 0 8.632120e-02 -113.7872 367.536)">
</image>
<g>
	<path class="st6" d="M106.7,113H6.9c-2.8,0-5.1-2.3-5.1-5.1V7c0-2.8,2.3-5.1,5.1-5.1h99.8c2.8,0,5.1,2.3,5.1,5.1v100.9
		C111.8,110.7,109.5,113,106.7,113z"/>
	<circle class="st7" cx="56.7" cy="41.5" r="20.2"/>
	<path class="st7" d="M17.3,101c0,0,78.7,0,78.8,0c0.3,0-0.1-8.1-0.1-8.8c-0.1-2.4-0.9-4.4-2.2-6.4c-4-6-10.5-8.2-17-10.4
		c0,0-20.3-7-42,0c-6.5,2.1-12.4,5.7-16.2,11.6c-1,1.6-1.4,3.1-1.4,5C17.3,95,17.3,98,17.3,101z"/>
</g>
</svg>
