<svg xmlns="http://www.w3.org/2000/svg" width="23" height="23" viewBox="0 0 23 23">
  <g id="shopping-cart_1" data-name="shopping-cart 1" transform="translate(-2.5 -2.5)">
    <g id="Group">
      <path id="Vector" d="M0,0H2.333L2.8,2.333ZM4.667,11.667H16.333L21,2.333H2.8Zm0,0L2.8,2.333Zm0,0L1.991,14.342a1.167,1.167,0,0,0,.825,1.991H16.333Zm11.667,4.667a2.333,2.333,0,1,0,1.65.683A2.333,2.333,0,0,0,16.333,16.333ZM7,18.667a2.333,2.333,0,1,1-.683-1.65A2.333,2.333,0,0,1,7,18.667Z" transform="translate(3.5 3.5)" fill="none" stroke="#fff" stroke-linecap="round" stroke-linejoin="round" stroke-width="2"/>
    </g>
  </g>
</svg>
