<svg xmlns="http://www.w3.org/2000/svg" width="12" height="12" viewBox="0 0 12 12">
  <g id="Group" transform="translate(-80 -989)">
    <g id="Vector" transform="translate(80 989)" fill="none">
      <path d="M5.232.582a.8.8,0,0,1,1.535,0l.864,2.774a.842.842,0,0,0,.293.421.784.784,0,0,0,.474.161h2.794a.85.85,0,0,1,.475,1.525L9.406,7.177a.842.842,0,0,0-.294.421.878.878,0,0,0,0,.521l.864,2.774a.817.817,0,0,1-1.243.942l-2.26-1.714a.78.78,0,0,0-.948,0l-2.26,1.714a.816.816,0,0,1-1.242-.942l.864-2.774a.878.878,0,0,0,0-.521.842.842,0,0,0-.294-.421L.334,5.464A.85.85,0,0,1,.808,3.938H3.6a.784.784,0,0,0,.474-.161.842.842,0,0,0,.293-.421L5.233.583Z" stroke="none"/>
      <path d="M 6.000027179718018 1.482577323913574 L 5.323727607727051 3.655060768127441 C 5.208137512207031 4.025200843811035 4.985437393188477 4.343280792236328 4.6796875 4.574910640716553 C 4.370257377624512 4.80932092666626 3.98748779296875 4.93842077255249 3.601657867431641 4.93842077255249 L 1.29612922668457 4.93842077255249 L 3.196627616882324 6.379671096801758 C 3.50263786315918 6.611480712890625 3.725457191467285 6.929831027984619 3.840967178344727 7.300291061401367 C 3.954707145690918 7.665040969848633 3.954917907714844 8.050701141357422 3.841387748718262 8.416131019592285 L 3.137691497802734 10.67660617828369 L 4.920857429504395 9.324151039123535 C 5.230377674102783 9.089530944824219 5.613307476043701 8.960321426391602 5.999087333679199 8.960321426391602 C 6.384897708892822 8.960321426391602 6.76782751083374 9.089540481567383 7.077547550201416 9.324331283569336 L 8.861553192138672 10.677414894104 L 8.157427787780762 8.415580749511719 C 8.0440673828125 8.050701141357422 8.044277191162109 7.665040969848633 8.158007621765137 7.300330638885498 C 8.273537635803223 6.929821014404297 8.496356964111328 6.611450672149658 8.801887512207031 6.380040645599365 L 10.70371341705322 4.937581062316895 L 8.396567344665527 4.937581062316895 C 8.011147499084473 4.937290668487549 7.628597259521484 4.808001041412354 7.319397449493408 4.573520660400391 C 7.01402759552002 4.3419508934021 6.791567325592041 4.024070739746094 6.675807476043701 3.65337085723877 L 6.000027179718018 1.482577323913574 M 5.999796390533447 -3.814697265625e-06 C 6.323132514953613 -3.814697265625e-06 6.64636754989624 0.1940212249755859 6.767027378082275 0.5820713043212891 L 7.630607604980469 3.356141090393066 C 7.683367252349854 3.525080680847168 7.785927295684814 3.672290802001953 7.923637390136719 3.776721000671387 C 8.061337471008301 3.88114070892334 8.227137565612793 3.937450408935547 8.397327423095703 3.937581062316895 L 11.19144725799561 3.937581062316895 C 11.97350788116455 3.937581062316895 12.29795742034912 4.982491016387939 11.66600704193115 5.46281099319458 L 9.406187057495117 7.176790714263916 C 9.268198013305664 7.28131103515625 9.165447235107422 7.428761005401611 9.112677574157715 7.598001003265381 C 9.059897422790527 7.767251014709473 9.059807777404785 7.949590682983398 9.112407684326172 8.118900299072266 L 9.975987434387207 10.89296054840088 C 10.21810722351074 11.66906070709229 9.36663818359375 12.31538105010986 8.733078002929688 11.83506107330322 L 6.473247528076172 10.12108039855957 C 6.335407257080078 10.01659107208252 6.169427394866943 9.960321426391602 5.999087333679199 9.960321426391602 C 5.828747272491455 9.960321426391602 5.662777423858643 10.01659107208252 5.524927616119385 10.12108039855957 L 3.265097618103027 11.83506107330322 C 2.632342338562012 12.3153829574585 1.78168773651123 11.66905975341797 2.023007392883301 10.89296054840088 L 2.886577606201172 8.118900299072266 C 2.939177513122559 7.949590682983398 2.939087867736816 7.767251014709473 2.886307716369629 7.598001003265381 C 2.833537101745605 7.428761005401611 2.73078727722168 7.28131103515625 2.592807769775391 7.176790714263916 L 0.3337879180908203 5.463650703430176 C -0.2981624603271484 4.983330726623535 0.02708721160888672 3.938421249389648 0.8083477020263672 3.938421249389648 L 3.601657867431641 3.938421249389648 C 3.77104663848877 3.939066886901855 3.937967300415039 3.882250785827637 4.0758376121521 3.777811050415039 C 4.21369743347168 3.673371315002441 4.31638765335083 3.526061058044434 4.369187355041504 3.35698127746582 L 5.232767581939697 0.5829105377197266 L 5.23195743560791 0.5820713043212891 C 5.353022575378418 0.1940212249755859 5.676459789276123 -3.814697265625e-06 5.999796390533447 -3.814697265625e-06 Z" stroke="none" fill="#f2994a"/>
    </g>
  </g>
</svg>
